# Blender 4.2.11 LTS
# www.blender.org
o tmp_export_3-collision.014
v -21.769943 -12.955795 -21.132479
v -21.784088 -12.935799 -21.132479
v -45.001087 -12.955795 -21.132479
v -21.798231 -12.955795 -21.132479
v -45.001087 17.044205 -21.132479
v -0.001087 17.024204 -21.132479
v -0.015232 17.044205 -21.132479
v 21.772472 -12.955795 -21.132479
v 0.013058 17.044205 -21.132479
v 44.998913 17.044205 -21.132479
v 21.785915 -12.936798 -21.132479
v 21.799351 -12.955795 -21.132479
v 44.998913 -12.955795 -21.132479
vn -0.0000 -0.0000 -1.0000
s 0
f 10//1 11//1 9//1
f 10//1 13//1 12//1
f 7//1 2//1 5//1
f 1//1 6//1 8//1
f 3//1 5//1 4//1
