# Blender 4.2.11 LTS
# www.blender.org
o tmp_export_1-collision.003
v -0.085698 -0.075004 -0.117058
v -0.085698 -0.074769 -0.117058
v 0.064288 -0.075004 -0.117058
v -0.085698 -0.075004 0.100942
v -0.085698 0.074996 -0.010801
v 0.064068 0.074996 -0.117058
v 0.064288 0.074996 -0.117058
v 0.064303 -0.075004 -0.004994
v -0.085624 -0.075004 0.101049
v -0.085698 0.074996 -0.004994
v 0.064303 0.074996 0.100942
v 0.064303 -0.075004 0.101049
v 0.064258 0.074893 0.101049
v 0.064303 0.074922 0.101049
vn -0.0000 -0.0000 -1.0000
vn -0.0000 -1.0000 -0.0000
vn -1.0000 -0.0000 -0.0000
vn -0.5008 0.5008 -0.7059
vn 1.0000 -0.0000 -0.0001
vn -0.7651 0.3715 0.5259
vn -0.0000 1.0000 -0.0000
vn -0.0000 1.0000 0.0002
vn 1.0000 -0.0000 -0.0000
vn -0.0000 -0.0000 1.0000
vn -0.0019 -0.0000 1.0000
vn -0.4999 0.4998 0.7073
vn -0.4369 0.6539 0.6177
vn -0.3715 0.7650 0.5261
s 0
f 1//1 2//1 6//1
f 1//1 6//1 7//1
f 1//1 7//1 3//1
f 1//2 3//2 8//2
f 1//2 8//2 12//2
f 1//2 12//2 9//2
f 1//2 9//2 4//2
f 1//3 4//3 10//3
f 1//3 10//3 5//3
f 1//3 5//3 2//3
f 2//4 5//4 6//4
f 3//5 7//5 8//5
f 4//6 9//6 10//6
f 5//7 10//7 11//7
f 5//7 11//7 7//7
f 5//8 7//8 6//8
f 7//5 11//5 8//5
f 8//9 11//9 14//9
f 8//9 14//9 12//9
f 9//10 12//10 14//10
f 9//11 14//11 13//11
f 9//12 13//12 10//12
f 10//13 13//13 14//13
f 10//14 14//14 11//14
