# Blender 4.2.11 LTS
# www.blender.org
o tmp_export_1-collision.001
v 0.081830 0.081766 0.051737
v 0.081830 -0.068234 0.051737
v 0.081816 0.081766 -0.064106
v 0.081595 0.081766 0.051737
v 0.081816 -0.068234 -0.064106
v -0.068155 -0.068234 0.051737
v -0.068170 0.081766 -0.064094
v -0.068170 0.081766 -0.054024
v -0.068067 -0.067896 0.051737
v -0.068170 -0.068234 -0.064094
v -0.068155 -0.067999 0.051737
vn 1.0000 -0.0000 -0.0001
vn -0.0000 1.0000 -0.0000
vn -0.0000 1.0000 0.0003
vn -0.0000 -0.0000 1.0000
vn -0.0003 -0.0000 1.0000
vn 0.0001 -0.0000 1.0000
vn -0.0000 -1.0000 -0.0000
vn -0.0001 -0.0000 -1.0000
vn -0.4997 0.4997 0.7076
vn -1.0000 -0.0000 0.0001
vn -1.0000 -0.0000 -0.0000
vn -0.5582 0.4787 0.6777
s 0
f 1//1 2//1 5//1
f 1//1 5//1 3//1
f 1//2 3//2 7//2
f 1//2 7//2 8//2
f 1//3 8//3 4//3
f 1//4 4//4 9//4
f 1//5 9//5 11//5
f 1//6 11//6 6//6
f 1//4 6//4 2//4
f 2//7 6//7 10//7
f 2//7 10//7 5//7
f 3//8 5//8 10//8
f 3//8 10//8 7//8
f 4//9 8//9 9//9
f 6//10 11//10 8//10
f 6//10 8//10 10//10
f 7//11 10//11 8//11
f 8//12 11//12 9//12
