# Blender 4.2.11 LTS
# www.blender.org
o tmp_export_1-collision.002
v -0.081821 -0.081802 -0.051780
v -0.081747 -0.081802 -0.051837
v -0.081821 -0.081802 0.064192
v -0.081821 0.068198 0.054139
v 0.068179 -0.081802 -0.051837
v 0.068135 0.068095 -0.051837
v 0.068179 -0.081802 0.064192
v -0.081821 0.068198 0.064192
v 0.068179 0.068198 -0.051780
v 0.068179 0.068124 -0.051837
v 0.068179 0.068198 0.064192
vn -0.0000 -1.0000 -0.0009
vn -0.0000 -1.0000 -0.0000
vn -1.0000 -0.0000 -0.0000
vn -0.5344 0.4877 -0.6903
vn -0.4997 0.4997 -0.7076
vn 0.0019 -0.0000 -1.0000
vn -0.0000 -0.0000 -1.0000
vn -0.0000 -0.0000 1.0000
vn -0.0000 1.0000 -0.0000
vn -0.4729 0.5727 -0.6696
vn 1.0000 -0.0000 -0.0000
vn -0.3780 0.5666 -0.7322
s 0
f 1//1 2//1 5//1
f 1//2 5//2 7//2
f 1//2 7//2 3//2
f 1//3 3//3 8//3
f 1//3 8//3 4//3
f 1//4 4//4 2//4
f 2//5 4//5 6//5
f 2//6 6//6 10//6
f 2//7 10//7 5//7
f 3//8 7//8 11//8
f 3//8 11//8 8//8
f 4//9 8//9 11//9
f 4//9 11//9 9//9
f 4//10 9//10 6//10
f 5//11 10//11 9//11
f 5//11 9//11 11//11
f 5//11 11//11 7//11
f 6//12 9//12 10//12
