# Blender 4.2.11 LTS
# www.blender.org
o tmp_export_6_part_puzzle_cube
v -24.169483 10.323517 -20.211117
v -24.155338 10.303516 -20.211117
v -47.372341 -19.676483 -20.211117
v -47.372341 10.323517 -20.211117
v 19.414660 10.303093 -20.211117
v -1.785023 -19.676483 -20.211117
v 19.400215 10.323517 -20.211117
v -1.801342 10.304516 9.788883
v -24.141201 -19.676483 9.788883
v 16.519386 -15.603218 9.788883
v 19.399881 -19.676483 9.788883
v 40.616222 10.323517 9.788883
v 40.629658 10.304516 9.788883
v 42.627659 10.323517 9.788883
v -24.141201 10.323517 -20.211117
v -2.940342 10.304516 9.788883
v -1.787907 10.323517 9.788883
v 19.414660 -19.676483 9.767988
v 9.525063 10.323517 -6.247028
v -1.801342 10.323517 9.769884
v 40.629658 10.323517 9.769884
v 19.429102 10.323517 -20.211117
v 42.627659 -19.676483 -20.211117
v 22.309793 -15.603218 9.788883
v 42.627659 -19.676483 9.788883
v 19.429436 -19.676483 9.788883
v 42.627659 10.323517 -20.211117
v -24.155338 -19.676483 9.768883
v -24.169483 -19.676483 9.788883
v -47.372341 -19.676483 9.788883
v 29.303787 10.323517 -6.247028
v -47.372341 10.323517 9.788883
v -45.371342 10.323517 9.769884
v -2.940342 10.323517 9.769884
v -2.953777 10.323517 9.788883
v -45.357906 10.323517 9.788883
v -45.371342 10.304516 9.788883
vn -0.0000 -0.0000 -1.0000
vn -0.0000 -0.0000 1.0000
vn 0.7070 0.5000 0.5001
vn 0.7071 0.5000 0.5000
vn 0.7070 0.5001 0.5000
vn -0.7070 -0.5001 -0.5000
vn 0.7071 -0.5000 -0.5000
vn -0.0000 -1.0000 -0.0000
vn -0.7070 0.5001 0.5000
vn -0.7071 0.5000 0.5000
vn -0.7072 0.4998 0.5001
vn -0.0000 1.0000 -0.0000
vn -0.0000 1.0000 0.0001
vn 1.0000 -0.0000 -0.0000
vn -1.0000 -0.0000 -0.0000
vn 0.7070 0.5002 0.4999
vn -0.7071 -0.5000 -0.5000
vn 0.7071 -0.4999 -0.5001
vn -0.7071 0.5001 0.4999
s 0
f 1//1 2//1 3//1
f 1//1 3//1 4//1
f 5//1 6//1 7//1
f 8//2 9//2 10//2
f 11//2 10//2 9//2
f 12//2 13//2 14//2
f 7//1 6//1 15//1
f 3//1 2//1 6//1
f 15//1 6//1 2//1
f 9//2 8//2 16//2
f 17//2 16//2 8//2
f 11//3 18//3 10//3
f 18//4 5//4 10//4
f 19//4 10//4 5//4
f 19//5 5//5 7//5
f 10//4 19//4 8//4
f 20//4 8//4 19//4
f 12//6 21//6 13//6
f 22//1 23//1 5//1
f 24//2 25//2 13//2
f 26//2 25//2 24//2
f 14//2 13//2 25//2
f 8//7 20//7 17//7
f 6//1 5//1 23//1
f 27//1 23//1 22//1
f 28//8 29//8 3//8
f 30//8 3//8 29//8
f 22//9 5//9 31//9
f 24//10 31//10 5//10
f 24//10 5//10 18//10
f 24//10 18//10 26//10
f 13//11 21//11 31//11
f 13//10 31//10 24//10
f 18//8 11//8 6//8
f 9//8 6//8 11//8
f 3//8 6//8 28//8
f 6//8 9//8 28//8
f 6//8 23//8 18//8
f 26//8 18//8 23//8
f 26//8 23//8 25//8
f 32//12 33//12 4//12
f 1//12 4//12 33//12
f 17//12 34//12 35//12
f 36//13 33//13 32//13
f 7//12 15//12 19//12
f 20//12 19//12 15//12
f 14//12 21//12 12//12
f 15//12 34//12 20//12
f 17//12 20//12 34//12
f 25//14 23//14 27//14
f 25//14 27//14 14//14
f 3//15 32//15 4//15
f 32//15 3//15 30//15
f 22//12 31//12 27//12
f 31//12 21//12 27//12
f 14//12 27//12 21//12
f 29//3 28//3 37//3
f 28//4 2//4 37//4
f 33//16 37//16 2//16
f 33//4 2//4 1//4
f 35//17 34//17 16//17
f 37//18 33//18 36//18
f 32//2 30//2 37//2
f 29//2 37//2 30//2
f 35//2 16//2 17//2
f 32//2 37//2 36//2
f 15//11 2//11 34//11
f 16//10 34//10 2//10
f 16//10 2//10 28//10
f 16//19 28//19 9//19
