# Blender 4.2.11 LTS
# www.blender.org
o tmp_export_6-collision.001
v -0.635686 0.272839 0.333374
v -0.560662 0.197862 0.439419
v -0.317489 0.591036 0.333374
v -0.560662 0.197862 0.227329
v -0.485685 0.122838 0.333374
v -0.242511 0.516013 0.439419
v -0.167488 0.441035 0.333374
v -0.242511 0.516013 0.227329
vn -0.4999 0.4999 0.7072
vn -0.4999 0.4999 -0.7072
vn -0.7071 -0.7071 -0.0003
vn -0.7071 -0.7071 0.0003
vn 0.4999 -0.4999 0.7072
vn 0.7071 0.7071 0.0003
vn 0.7071 0.7071 -0.0003
vn 0.4999 -0.4999 -0.7072
s 0
f 1//1 2//1 6//1
f 1//1 6//1 3//1
f 1//2 3//2 8//2
f 1//2 8//2 4//2
f 1//3 4//3 5//3
f 1//4 5//4 2//4
f 2//5 5//5 7//5
f 2//5 7//5 6//5
f 3//6 6//6 7//6
f 3//7 7//7 8//7
f 4//8 8//8 7//8
f 4//8 7//8 5//8
