# Blender 4.2.11 LTS
# www.blender.org
o tmp_export_4-collision.003
v -0.398005 0.514304 0.116270
v -0.397990 0.364304 0.010353
v -0.397990 0.364407 0.010285
v -0.398005 0.514304 0.000297
v -0.398093 0.514304 0.116350
v -0.398093 0.514289 0.116361
v -0.397990 0.364304 0.000297
v -0.547975 0.364407 0.116361
v -0.547975 0.364304 0.116270
v -0.547975 0.514304 0.000297
v -0.495880 0.514304 0.116361
v -0.547975 0.364304 0.000297
v -0.547990 0.462194 0.116361
v -0.547975 0.514304 0.116361
vn 1.0000 -0.0003 0.0001
vn 1.0000 0.0001 -0.0000
vn -0.0000 1.0000 -0.0000
vn -0.0000 1.0000 -0.0024
vn -0.0000 1.0000 0.0010
vn 0.5796 0.4996 0.6438
vn 0.6845 -0.4204 0.5956
vn 1.0000 -0.0000 -0.0000
vn 0.4997 -0.4997 0.7075
vn 0.4677 -0.5857 0.6620
vn -0.0000 -1.0000 -0.0000
vn -0.0000 -0.0000 -1.0000
vn 0.0001 0.6134 0.7898
vn -0.0000 -0.0000 1.0000
vn -1.0000 -0.0001 0.0002
vn -1.0000 -0.0002 -0.0000
vn -1.0000 -0.0000 -0.0001
vn -1.0000 0.0003 -0.0000
s 0
f 1//1 2//1 3//1
f 1//2 3//2 4//2
f 1//3 4//3 10//3
f 1//3 10//3 14//3
f 1//4 14//4 11//4
f 1//5 11//5 5//5
f 1//6 5//6 6//6
f 1//7 6//7 2//7
f 2//8 7//8 3//8
f 2//9 6//9 8//9
f 2//10 8//10 9//10
f 2//11 9//11 12//11
f 2//11 12//11 7//11
f 3//2 7//2 4//2
f 4//12 7//12 12//12
f 4//12 12//12 10//12
f 5//13 11//13 6//13
f 6//14 11//14 14//14
f 6//14 14//14 13//14
f 6//14 13//14 8//14
f 8//15 13//15 9//15
f 9//16 13//16 12//16
f 10//17 12//17 13//17
f 10//18 13//18 14//18
