# Blender 4.2.11 LTS
# www.blender.org
o tmp_export_6_part_puzzle_cube.003
v 42.987247 9.378625 9.378626
v 44.998684 9.378625 9.378626
v 43.000683 9.359626 9.378626
v 43.000683 9.378625 9.359627
v 21.799828 9.378625 -20.621374
v 21.785685 9.358624 -20.621374
v 44.998684 9.378625 -20.621374
v 44.998684 -20.621376 -20.621374
v 44.998684 -20.621376 9.378626
v 21.799828 -20.621376 9.378626
v 21.785685 -20.621376 9.358625
v 21.771540 -20.621376 9.378626
v 0.569683 9.359626 9.378626
v 0.569683 9.378625 9.359627
v -21.784313 -20.621376 9.358625
v -21.798458 -20.621376 9.378626
v -43.000317 9.359626 9.378626
v -43.000317 9.378625 9.359627
v -21.784313 9.358624 -20.621374
v -0.569317 9.359626 9.378626
v -21.770176 -20.621376 9.378626
v -45.001316 -20.621376 -20.621374
v -21.798458 9.378625 -20.621374
v -45.001316 9.378625 -20.621374
v -45.001316 9.378625 9.378626
v -45.001316 -20.621376 9.378626
v -42.986881 9.378625 9.378626
v 0.583118 9.378625 9.378626
v -0.582752 9.378625 9.378626
v -0.569317 9.378625 9.359627
v -21.770176 9.378625 -20.621374
v 21.771540 9.378625 -20.621374
vn -0.0000 1.0000 -0.0000
vn -0.0000 -0.0000 1.0000
vn -0.7070 -0.5001 -0.5000
vn -0.7071 0.5000 0.5000
vn -0.7072 0.4998 0.5001
vn -0.0000 -0.0000 -1.0000
vn 1.0000 -0.0000 -0.0000
vn -0.0000 -1.0000 -0.0000
vn 0.7070 0.5000 0.5001
vn 0.7071 0.5000 0.5000
vn -0.7071 0.5001 0.4999
vn 0.0001 -0.0000 -1.0000
vn -1.0000 -0.0000 -0.0000
vn 0.7071 -0.5000 -0.5000
vn -0.7071 -0.5000 -0.5000
vn 0.7070 0.5001 0.5000
vn -0.0001 -0.0000 -1.0000
s 0
f 2//1 4//1 1//1
f 1//2 3//2 2//2
f 1//3 4//3 3//3
f 3//4 4//4 6//4
f 5//1 4//1 7//1
f 5//5 6//5 4//5
f 2//1 7//1 4//1
f 7//6 8//6 5//6
f 9//7 8//7 7//7
f 9//7 7//7 2//7
f 10//8 8//8 9//8
f 10//2 9//2 3//2
f 2//2 3//2 9//2
f 3//4 11//4 10//4
f 10//8 11//8 8//8
f 12//8 15//8 11//8
f 12//9 11//9 13//9
f 14//10 13//10 11//10
f 14//10 11//10 6//10
f 3//4 6//4 11//4
f 11//8 15//8 8//8
f 15//8 16//8 22//8
f 16//9 15//9 17//9
f 18//10 17//10 15//10
f 18//10 15//10 19//10
f 20//4 19//4 15//4
f 20//11 15//11 21//11
f 21//8 15//8 12//8
f 22//8 8//8 15//8
f 22//6 19//6 8//6
f 19//12 22//12 23//12
f 23//6 22//6 24//6
f 22//13 25//13 24//13
f 25//13 22//13 26//13
f 16//8 26//8 22//8
f 25//2 26//2 17//2
f 16//2 17//2 26//2
f 25//1 18//1 24//1
f 27//1 18//1 25//1
f 25//2 17//2 27//2
f 17//14 18//14 27//14
f 23//1 24//1 18//1
f 18//10 19//10 23//10
f 21//2 13//2 20//2
f 12//2 13//2 21//2
f 28//2 20//2 13//2
f 29//2 20//2 28//2
f 29//15 30//15 20//15
f 20//4 30//4 19//4
f 28//1 30//1 29//1
f 31//1 30//1 14//1
f 31//5 19//5 30//5
f 28//1 14//1 30//1
f 32//1 31//1 14//1
f 32//6 19//6 31//6
f 32//6 6//6 19//6
f 14//16 6//16 32//16
f 13//14 14//14 28//14
f 6//6 8//6 19//6
f 6//17 5//17 8//17
