# Blender 4.2.11 LTS
# www.blender.org
o tmp_export_2-collision.020
v -45.001087 17.044209 -21.132477
v -0.001087 17.024208 -21.132477
v -0.015232 17.044209 -21.132477
v -21.798231 -12.955791 -21.132477
v -21.784088 -12.935791 -21.132477
v -21.769943 -12.955791 -21.132477
v 21.772472 -12.955791 -21.132477
v 21.785915 -12.936790 -21.132477
v 21.799351 -12.955791 -21.132477
v 0.013058 17.044209 -21.132477
v 44.998913 17.044209 -21.132477
v 44.998913 -12.955791 -21.132477
v -45.001087 -12.955791 -21.132477
vn -0.0000 -0.0000 -1.0000
s 0
f 7//1 2//1 8//1
f 7//1 6//1 2//1
f 3//1 5//1 1//1
f 10//1 8//1 2//1
f 11//1 8//1 10//1
f 11//1 12//1 9//1
f 13//1 1//1 4//1
