# Blender 4.2.11 LTS
# www.blender.org
o tmp_export_6_part_puzzle_cube.001
v -21.769943 17.044209 8.867523
v -21.203651 17.044209 8.867523
v -21.217087 17.025209 8.867523
v -21.784088 17.044209 8.847523
v -21.217087 17.044209 8.848524
v -0.568089 -12.937790 8.867523
v -0.015232 -12.955791 8.867523
v -0.580814 -12.955791 8.867523
v -0.568089 -12.955791 8.849524
v -21.784088 -12.935791 -21.132477
v -21.798231 -12.955791 -21.132477
v -43.000088 -12.955791 8.849524
v -43.000088 -12.937790 8.867523
v -0.015232 17.044209 -21.132477
v -0.001087 17.024208 -21.132477
v -45.001087 17.044209 -21.132477
v -21.769943 -12.955791 -21.132477
v -0.001087 -12.955791 8.847523
v 21.772472 -12.955791 -21.132477
v 0.569912 -12.955791 8.848524
v 21.785915 -12.936790 -21.132477
v 0.569912 -12.936790 8.867523
v 21.785915 17.044209 8.848524
v 43.001911 -12.936790 8.867523
v 43.001911 -12.955791 8.848524
v 21.799351 -12.955791 -21.132477
v 0.013058 17.044209 -21.132477
v 44.998913 17.044209 -21.132477
v 44.998913 17.044209 8.867523
v 44.998913 -12.955791 -21.132477
v 21.799351 17.044209 8.867523
v 44.998913 -12.955791 8.867523
v 42.988476 -12.955791 8.867523
v 21.214916 17.044209 8.848524
v 21.201473 17.044209 8.867523
v 21.214916 17.025209 8.867523
v 21.772472 17.044209 8.867523
v 0.013058 -12.955791 8.867523
v 0.583347 -12.955791 8.867523
v -21.798231 17.044209 8.867523
v -45.001087 17.044209 8.867523
v -45.001087 -12.955791 -21.132477
v -45.001087 -12.955791 8.867523
v -42.987358 -12.955791 8.867523
vn -0.0000 1.0000 -0.0000
vn -0.0000 -0.0000 1.0000
vn -0.7070 -0.5000 0.5001
vn -0.7072 0.4999 -0.5000
vn -0.7071 -0.5000 0.5000
vn -0.0000 -0.0000 -1.0000
vn 0.7071 -0.4999 0.5001
vn 0.7071 -0.4999 0.5000
vn 0.7071 -0.5000 0.5000
vn -0.0000 -1.0000 -0.0000
vn 0.7070 -0.5002 0.5000
vn 0.7071 -0.5000 0.5001
vn -0.7070 -0.5001 0.5000
vn -0.7071 -0.4999 0.5001
vn 1.0000 -0.0000 -0.0000
vn -0.0000 1.0000 -0.0001
vn -0.7071 0.4999 -0.5001
vn -0.7071 0.5001 0.5000
vn -0.7069 -0.5002 -0.5001
vn -0.7071 0.5000 0.5000
vn 0.7070 -0.5000 0.5002
vn -0.7070 0.5000 0.5001
vn 0.7071 0.5000 -0.5000
vn -0.0000 -1.0000 -0.0001
vn 0.7070 0.5000 0.5001
vn 0.7071 0.5000 0.5000
vn -1.0000 -0.0000 -0.0000
vn 0.7071 0.5001 0.5000
vn 0.7071 -0.5001 -0.5000
s 0
f 2//1 5//1 1//1
f 1//2 3//2 2//2
f 1//2 6//2 3//2
f 1//3 4//3 6//3
f 4//1 1//1 5//1
f 7//2 3//2 6//2
f 7//2 6//2 8//2
f 8//4 6//4 9//4
f 9//5 6//5 10//5
f 4//5 10//5 6//5
f 10//6 11//6 16//6
f 11//7 10//7 12//7
f 12//8 10//8 13//8
f 4//9 13//9 10//9
f 14//6 10//6 16//6
f 14//6 15//6 10//6
f 10//6 15//6 17//6
f 9//5 10//5 17//5
f 17//10 18//10 9//10
f 17//10 19//10 18//10
f 19//6 17//6 15//6
f 19//10 20//10 18//10
f 19//11 21//11 20//11
f 19//6 15//6 21//6
f 22//12 20//12 21//12
f 22//9 21//9 23//9
f 23//5 21//5 24//5
f 25//13 24//13 21//13
f 25//14 21//14 26//14
f 28//6 26//6 21//6
f 27//6 21//6 15//6
f 28//6 21//6 27//6
f 29//1 28//1 31//1
f 29//15 30//15 28//15
f 28//6 30//6 26//6
f 27//1 23//1 28//1
f 23//16 31//16 28//16
f 31//2 24//2 29//2
f 31//5 23//5 24//5
f 26//10 30//10 25//10
f 32//10 25//10 30//10
f 29//15 32//15 30//15
f 32//2 29//2 24//2
f 24//2 33//2 32//2
f 33//10 25//10 32//10
f 33//17 24//17 25//17
f 27//1 34//1 23//1
f 27//18 15//18 34//18
f 37//1 34//1 35//1
f 34//19 36//19 35//19
f 18//20 36//20 34//20
f 37//1 23//1 34//1
f 18//20 34//20 15//20
f 22//21 23//21 37//21
f 22//2 37//2 36//2
f 35//2 36//2 37//2
f 36//2 38//2 22//2
f 38//22 36//22 18//22
f 39//2 22//2 38//2
f 38//10 20//10 39//10
f 38//10 18//10 20//10
f 20//23 22//23 39//23
f 7//24 9//24 18//24
f 7//25 18//25 3//25
f 5//26 18//26 15//26
f 5//26 3//26 18//26
f 40//1 16//1 41//1
f 40//1 4//1 16//1
f 16//1 4//1 14//1
f 16//27 42//27 41//27
f 42//6 16//6 11//6
f 43//27 41//27 42//27
f 43//10 42//10 12//10
f 11//10 12//10 42//10
f 43//10 12//10 44//10
f 44//2 13//2 43//2
f 41//2 43//2 13//2
f 12//23 13//23 44//23
f 13//2 40//2 41//2
f 13//9 4//9 40//9
f 5//28 15//28 14//28
f 5//1 14//1 4//1
f 8//10 9//10 7//10
f 2//29 3//29 5//29
